solid OpenSCAD_Model
  facet normal -0.26963 0.962964 0
    outer loop
      vertex 0 8.39999 -37.2
      vertex -30 0 -12
      vertex 0 8.39999 -12
    endloop
  endfacet
  facet normal -0.26963 0.962964 0
    outer loop
      vertex -30 0 -12
      vertex 0 8.39999 -37.2
      vertex -30 0 -37.2
    endloop
  endfacet
  facet normal 0.26963 -0.962964 0
    outer loop
      vertex 0 -8.39999 -37.2
      vertex 30 0 -12
      vertex 0 -8.39999 -12
    endloop
  endfacet
  facet normal 0.26963 -0.962964 0
    outer loop
      vertex 30 0 -12
      vertex 0 -8.39999 -37.2
      vertex 30 0 -37.2
    endloop
  endfacet
  facet normal 0 0 -1
    outer loop
      vertex 0 -8.39999 -37.2
      vertex 25 0 -37.2
      vertex 30 0 -37.2
    endloop
  endfacet
  facet normal 0 0 -1
    outer loop
      vertex 0 -8.39999 -37.2
      vertex 0 -7 -37.2
      vertex 25 0 -37.2
    endloop
  endfacet
  facet normal 0 0 -1
    outer loop
      vertex 0 -8.39999 -37.2
      vertex -25 0 -37.2
      vertex 0 -7 -37.2
    endloop
  endfacet
  facet normal -0 -0 -1
    outer loop
      vertex -25 0 -37.2
      vertex 0 -8.39999 -37.2
      vertex -30 0 -37.2
    endloop
  endfacet
  facet normal 0 0 -1
    outer loop
      vertex 0 8.39999 -37.2
      vertex 25 0 -37.2
      vertex 0 7 -37.2
    endloop
  endfacet
  facet normal 0 0 -1
    outer loop
      vertex 25 0 -37.2
      vertex 0 8.39999 -37.2
      vertex 30 0 -37.2
    endloop
  endfacet
  facet normal 0 0 -1
    outer loop
      vertex -25 0 -37.2
      vertex 0 8.39999 -37.2
      vertex 0 7 -37.2
    endloop
  endfacet
  facet normal 0 0 -1
    outer loop
      vertex 0 8.39999 -37.2
      vertex -25 0 -37.2
      vertex -30 0 -37.2
    endloop
  endfacet
  facet normal 0.26963 0.962964 -0
    outer loop
      vertex 30 0 -37.2
      vertex 0 8.39999 -12
      vertex 30 0 -12
    endloop
  endfacet
  facet normal 0.26963 0.962964 0
    outer loop
      vertex 0 8.39999 -12
      vertex 30 0 -37.2
      vertex 0 8.39999 -37.2
    endloop
  endfacet
  facet normal 0 0 1
    outer loop
      vertex 30 0 -12
      vertex 3.95075 0.625737 -12
      vertex 4 0 -12
    endloop
  endfacet
  facet normal 0 0 1
    outer loop
      vertex 30 0 -12
      vertex 3.80423 1.23607 -12
      vertex 3.95075 0.625737 -12
    endloop
  endfacet
  facet normal 0 0 1
    outer loop
      vertex 30 0 -12
      vertex 3.56403 1.81596 -12
      vertex 3.80423 1.23607 -12
    endloop
  endfacet
  facet normal 0 0 1
    outer loop
      vertex 30 0 -12
      vertex 3.23607 2.35114 -12
      vertex 3.56403 1.81596 -12
    endloop
  endfacet
  facet normal 0 0 1
    outer loop
      vertex 0 8.39999 -12
      vertex 3.23607 2.35114 -12
      vertex 30 0 -12
    endloop
  endfacet
  facet normal 0 0 1
    outer loop
      vertex 3.23607 2.35114 -12
      vertex 0 8.39999 -12
      vertex 2.82843 2.82843 -12
    endloop
  endfacet
  facet normal 0 0 1
    outer loop
      vertex 2.82843 2.82843 -12
      vertex 0 8.39999 -12
      vertex 2.35114 3.23607 -12
    endloop
  endfacet
  facet normal 0 0 1
    outer loop
      vertex 2.35114 3.23607 -12
      vertex 0 8.39999 -12
      vertex 1.81596 3.56403 -12
    endloop
  endfacet
  facet normal 0 0 1
    outer loop
      vertex 1.81596 3.56403 -12
      vertex 0 8.39999 -12
      vertex 1.23607 3.80423 -12
    endloop
  endfacet
  facet normal 0 0 1
    outer loop
      vertex 1.23607 3.80423 -12
      vertex 0 8.39999 -12
      vertex 0.625737 3.95075 -12
    endloop
  endfacet
  facet normal 0 0 1
    outer loop
      vertex 0 8.39999 -12
      vertex 0 4 -12
      vertex 0.625737 3.95075 -12
    endloop
  endfacet
  facet normal 0 0 1
    outer loop
      vertex 0 8.39999 -12
      vertex -0.625737 3.95075 -12
      vertex 0 4 -12
    endloop
  endfacet
  facet normal 0 0 1
    outer loop
      vertex 0 8.39999 -12
      vertex -1.23607 3.80423 -12
      vertex -0.625737 3.95075 -12
    endloop
  endfacet
  facet normal 0 0 1
    outer loop
      vertex 0 8.39999 -12
      vertex -1.81596 3.56403 -12
      vertex -1.23607 3.80423 -12
    endloop
  endfacet
  facet normal 0 0 1
    outer loop
      vertex 0 8.39999 -12
      vertex -2.35114 3.23607 -12
      vertex -1.81596 3.56403 -12
    endloop
  endfacet
  facet normal 0 0 1
    outer loop
      vertex 0 8.39999 -12
      vertex -2.82843 2.82843 -12
      vertex -2.35114 3.23607 -12
    endloop
  endfacet
  facet normal 0 0 1
    outer loop
      vertex 0 8.39999 -12
      vertex -3.23607 2.35114 -12
      vertex -2.82843 2.82843 -12
    endloop
  endfacet
  facet normal 0 0 1
    outer loop
      vertex -30 0 -12
      vertex -3.23607 2.35114 -12
      vertex 0 8.39999 -12
    endloop
  endfacet
  facet normal 0 0 1
    outer loop
      vertex -3.95075 0.625737 -12
      vertex -30 0 -12
      vertex -4 0 -12
    endloop
  endfacet
  facet normal 0 0 1
    outer loop
      vertex -3.80423 1.23607 -12
      vertex -30 0 -12
      vertex -3.95075 0.625737 -12
    endloop
  endfacet
  facet normal 0 0 1
    outer loop
      vertex -3.56403 1.81596 -12
      vertex -30 0 -12
      vertex -3.80423 1.23607 -12
    endloop
  endfacet
  facet normal 0 0 1
    outer loop
      vertex -3.23607 2.35114 -12
      vertex -30 0 -12
      vertex -3.56403 1.81596 -12
    endloop
  endfacet
  facet normal 0 0 1
    outer loop
      vertex 3.95075 -0.625737 -12
      vertex 30 0 -12
      vertex 4 0 -12
    endloop
  endfacet
  facet normal 0 0 1
    outer loop
      vertex 3.80423 -1.23607 -12
      vertex 30 0 -12
      vertex 3.95075 -0.625737 -12
    endloop
  endfacet
  facet normal 0 0 1
    outer loop
      vertex 3.56403 -1.81596 -12
      vertex 30 0 -12
      vertex 3.80423 -1.23607 -12
    endloop
  endfacet
  facet normal 0 0 1
    outer loop
      vertex 3.23607 -2.35114 -12
      vertex 30 0 -12
      vertex 3.56403 -1.81596 -12
    endloop
  endfacet
  facet normal 0 0 1
    outer loop
      vertex 0 -8.39999 -12
      vertex 3.23607 -2.35114 -12
      vertex 2.82843 -2.82843 -12
    endloop
  endfacet
  facet normal 0 0 1
    outer loop
      vertex 0 -8.39999 -12
      vertex 2.82843 -2.82843 -12
      vertex 2.35114 -3.23607 -12
    endloop
  endfacet
  facet normal 0 0 1
    outer loop
      vertex 0 -8.39999 -12
      vertex 2.35114 -3.23607 -12
      vertex 1.81596 -3.56403 -12
    endloop
  endfacet
  facet normal 0 0 1
    outer loop
      vertex 0 -8.39999 -12
      vertex 1.81596 -3.56403 -12
      vertex 1.23607 -3.80423 -12
    endloop
  endfacet
  facet normal 0 0 1
    outer loop
      vertex 0 -8.39999 -12
      vertex 1.23607 -3.80423 -12
      vertex 0.625737 -3.95075 -12
    endloop
  endfacet
  facet normal -0 0 1
    outer loop
      vertex 3.23607 -2.35114 -12
      vertex 0 -8.39999 -12
      vertex 30 0 -12
    endloop
  endfacet
  facet normal -0 0 1
    outer loop
      vertex 0 -4 -12
      vertex 0 -8.39999 -12
      vertex 0.625737 -3.95075 -12
    endloop
  endfacet
  facet normal 0 0 1
    outer loop
      vertex -0.625737 -3.95075 -12
      vertex 0 -8.39999 -12
      vertex 0 -4 -12
    endloop
  endfacet
  facet normal 0 0 1
    outer loop
      vertex -1.23607 -3.80423 -12
      vertex 0 -8.39999 -12
      vertex -0.625737 -3.95075 -12
    endloop
  endfacet
  facet normal 0 0 1
    outer loop
      vertex -1.81596 -3.56403 -12
      vertex 0 -8.39999 -12
      vertex -1.23607 -3.80423 -12
    endloop
  endfacet
  facet normal 0 0 1
    outer loop
      vertex -2.35114 -3.23607 -12
      vertex 0 -8.39999 -12
      vertex -1.81596 -3.56403 -12
    endloop
  endfacet
  facet normal 0 0 1
    outer loop
      vertex -2.82843 -2.82843 -12
      vertex 0 -8.39999 -12
      vertex -2.35114 -3.23607 -12
    endloop
  endfacet
  facet normal 0 0 1
    outer loop
      vertex -3.23607 -2.35114 -12
      vertex 0 -8.39999 -12
      vertex -2.82843 -2.82843 -12
    endloop
  endfacet
  facet normal 0 0 1
    outer loop
      vertex -30 0 -12
      vertex -3.23607 -2.35114 -12
      vertex -3.56403 -1.81596 -12
    endloop
  endfacet
  facet normal 0 0 1
    outer loop
      vertex -3.23607 -2.35114 -12
      vertex -30 0 -12
      vertex 0 -8.39999 -12
    endloop
  endfacet
  facet normal 0 0 1
    outer loop
      vertex -3.80423 -1.23607 -12
      vertex -30 0 -12
      vertex -3.56403 -1.81596 -12
    endloop
  endfacet
  facet normal 0 0 1
    outer loop
      vertex -3.95075 -0.625737 -12
      vertex -30 0 -12
      vertex -3.80423 -1.23607 -12
    endloop
  endfacet
  facet normal -0 0 1
    outer loop
      vertex -30 0 -12
      vertex -3.95075 -0.625737 -12
      vertex -4 0 -12
    endloop
  endfacet
  facet normal 0 0 -1
    outer loop
      vertex 1.48153 -0.234652 -12
      vertex 1.48153 0.234652 -12
      vertex 1.5 0 -12
    endloop
  endfacet
  facet normal 0 0 -1
    outer loop
      vertex 1.42658 -0.463525 -12
      vertex 1.48153 0.234652 -12
      vertex 1.48153 -0.234652 -12
    endloop
  endfacet
  facet normal 0 0 -1
    outer loop
      vertex 1.42658 -0.463525 -12
      vertex 1.42658 0.463525 -12
      vertex 1.48153 0.234652 -12
    endloop
  endfacet
  facet normal 0 0 -1
    outer loop
      vertex 1.33651 -0.680985 -12
      vertex 1.42658 0.463525 -12
      vertex 1.42658 -0.463525 -12
    endloop
  endfacet
  facet normal 0 0 -1
    outer loop
      vertex 1.33651 -0.680985 -12
      vertex 1.33651 0.680985 -12
      vertex 1.42658 0.463525 -12
    endloop
  endfacet
  facet normal 0 0 -1
    outer loop
      vertex 1.21352 -0.881678 -12
      vertex 1.33651 0.680985 -12
      vertex 1.33651 -0.680985 -12
    endloop
  endfacet
  facet normal 0 0 -1
    outer loop
      vertex 1.21352 -0.881678 -12
      vertex 1.21352 0.881678 -12
      vertex 1.33651 0.680985 -12
    endloop
  endfacet
  facet normal 0 0 -1
    outer loop
      vertex 1.06066 -1.06066 -12
      vertex 1.21352 0.881678 -12
      vertex 1.21352 -0.881678 -12
    endloop
  endfacet
  facet normal 0 0 -1
    outer loop
      vertex 1.06066 -1.06066 -12
      vertex 1.06066 1.06066 -12
      vertex 1.21352 0.881678 -12
    endloop
  endfacet
  facet normal 0 0 -1
    outer loop
      vertex 0.881678 -1.21352 -12
      vertex 1.06066 1.06066 -12
      vertex 1.06066 -1.06066 -12
    endloop
  endfacet
  facet normal 0 0 -1
    outer loop
      vertex 0.881678 -1.21352 -12
      vertex 0.881678 1.21352 -12
      vertex 1.06066 1.06066 -12
    endloop
  endfacet
  facet normal 0 0 -1
    outer loop
      vertex 0.680985 -1.33651 -12
      vertex 0.881678 1.21352 -12
      vertex 0.881678 -1.21352 -12
    endloop
  endfacet
  facet normal 0 0 -1
    outer loop
      vertex 0.680985 -1.33651 -12
      vertex 0.680985 1.33651 -12
      vertex 0.881678 1.21352 -12
    endloop
  endfacet
  facet normal 0 0 -1
    outer loop
      vertex 0.463525 -1.42658 -12
      vertex 0.680985 1.33651 -12
      vertex 0.680985 -1.33651 -12
    endloop
  endfacet
  facet normal 0 0 -1
    outer loop
      vertex 0.463525 -1.42658 -12
      vertex 0.463525 1.42658 -12
      vertex 0.680985 1.33651 -12
    endloop
  endfacet
  facet normal 0 0 -1
    outer loop
      vertex 0.234652 -1.48153 -12
      vertex 0.463525 1.42658 -12
      vertex 0.463525 -1.42658 -12
    endloop
  endfacet
  facet normal 0 0 -1
    outer loop
      vertex 0.234652 -1.48153 -12
      vertex 0.234652 1.48153 -12
      vertex 0.463525 1.42658 -12
    endloop
  endfacet
  facet normal 0 0 -1
    outer loop
      vertex 0 -1.5 -12
      vertex 0.234652 1.48153 -12
      vertex 0.234652 -1.48153 -12
    endloop
  endfacet
  facet normal 0 0 -1
    outer loop
      vertex 0 -1.5 -12
      vertex 0 1.5 -12
      vertex 0.234652 1.48153 -12
    endloop
  endfacet
  facet normal 0 0 -1
    outer loop
      vertex -0.234652 -1.48153 -12
      vertex 0 1.5 -12
      vertex 0 -1.5 -12
    endloop
  endfacet
  facet normal 0 0 -1
    outer loop
      vertex -0.234652 -1.48153 -12
      vertex -0.234652 1.48153 -12
      vertex 0 1.5 -12
    endloop
  endfacet
  facet normal 0 0 -1
    outer loop
      vertex -0.463525 -1.42658 -12
      vertex -0.234652 1.48153 -12
      vertex -0.234652 -1.48153 -12
    endloop
  endfacet
  facet normal 0 0 -1
    outer loop
      vertex -0.463525 -1.42658 -12
      vertex -0.463525 1.42658 -12
      vertex -0.234652 1.48153 -12
    endloop
  endfacet
  facet normal 0 0 -1
    outer loop
      vertex -0.680985 -1.33651 -12
      vertex -0.463525 1.42658 -12
      vertex -0.463525 -1.42658 -12
    endloop
  endfacet
  facet normal 0 0 -1
    outer loop
      vertex -0.680985 -1.33651 -12
      vertex -0.680985 1.33651 -12
      vertex -0.463525 1.42658 -12
    endloop
  endfacet
  facet normal 0 0 -1
    outer loop
      vertex -0.881678 -1.21352 -12
      vertex -0.680985 1.33651 -12
      vertex -0.680985 -1.33651 -12
    endloop
  endfacet
  facet normal 0 0 -1
    outer loop
      vertex -0.881678 -1.21352 -12
      vertex -0.881678 1.21352 -12
      vertex -0.680985 1.33651 -12
    endloop
  endfacet
  facet normal 0 0 -1
    outer loop
      vertex -1.06066 -1.06066 -12
      vertex -0.881678 1.21352 -12
      vertex -0.881678 -1.21352 -12
    endloop
  endfacet
  facet normal 0 0 -1
    outer loop
      vertex -1.06066 -1.06066 -12
      vertex -1.06066 1.06066 -12
      vertex -0.881678 1.21352 -12
    endloop
  endfacet
  facet normal 0 0 -1
    outer loop
      vertex -1.21352 -0.881678 -12
      vertex -1.06066 1.06066 -12
      vertex -1.06066 -1.06066 -12
    endloop
  endfacet
  facet normal 0 0 -1
    outer loop
      vertex -1.21352 -0.881678 -12
      vertex -1.21352 0.881678 -12
      vertex -1.06066 1.06066 -12
    endloop
  endfacet
  facet normal 0 0 -1
    outer loop
      vertex -1.33651 -0.680985 -12
      vertex -1.21352 0.881678 -12
      vertex -1.21352 -0.881678 -12
    endloop
  endfacet
  facet normal 0 0 -1
    outer loop
      vertex -1.33651 -0.680985 -12
      vertex -1.33651 0.680985 -12
      vertex -1.21352 0.881678 -12
    endloop
  endfacet
  facet normal 0 0 -1
    outer loop
      vertex -1.42658 -0.463525 -12
      vertex -1.33651 0.680985 -12
      vertex -1.33651 -0.680985 -12
    endloop
  endfacet
  facet normal 0 0 -1
    outer loop
      vertex -1.42658 -0.463525 -12
      vertex -1.42658 0.463525 -12
      vertex -1.33651 0.680985 -12
    endloop
  endfacet
  facet normal 0 0 -1
    outer loop
      vertex -1.48153 -0.234652 -12
      vertex -1.42658 0.463525 -12
      vertex -1.42658 -0.463525 -12
    endloop
  endfacet
  facet normal 0 0 -1
    outer loop
      vertex -1.48153 -0.234652 -12
      vertex -1.48153 0.234652 -12
      vertex -1.42658 0.463525 -12
    endloop
  endfacet
  facet normal 0 -0 -1
    outer loop
      vertex -1.48153 0.234652 -12
      vertex -1.48153 -0.234652 -12
      vertex -1.5 0 -12
    endloop
  endfacet
  facet normal -0.26963 -0.962964 0
    outer loop
      vertex -30 0 -37.2
      vertex 0 -8.39999 -12
      vertex -30 0 -12
    endloop
  endfacet
  facet normal -0.26963 -0.962964 -0
    outer loop
      vertex 0 -8.39999 -12
      vertex -30 0 -37.2
      vertex 0 -8.39999 -37.2
    endloop
  endfacet
  facet normal 0.26963 -0.962964 0
    outer loop
      vertex -25 0 -37.2
      vertex 0 7 -16.2
      vertex -25 0 -16.2
    endloop
  endfacet
  facet normal 0.26963 -0.962964 0
    outer loop
      vertex 0 7 -16.2
      vertex -25 0 -37.2
      vertex 0 7 -37.2
    endloop
  endfacet
  facet normal -0.26963 0.962964 0
    outer loop
      vertex 25 0 -37.2
      vertex 0 -7 -16.2
      vertex 25 0 -16.2
    endloop
  endfacet
  facet normal -0.26963 0.962964 0
    outer loop
      vertex 0 -7 -16.2
      vertex 25 0 -37.2
      vertex 0 -7 -37.2
    endloop
  endfacet
  facet normal -0.26963 -0.962964 0
    outer loop
      vertex 0 7 -37.2
      vertex 25 0 -16.2
      vertex 0 7 -16.2
    endloop
  endfacet
  facet normal -0.26963 -0.962964 -0
    outer loop
      vertex 25 0 -16.2
      vertex 0 7 -37.2
      vertex 25 0 -37.2
    endloop
  endfacet
  facet normal 0.26963 0.962964 -0
    outer loop
      vertex 0 -7 -37.2
      vertex -25 0 -16.2
      vertex 0 -7 -16.2
    endloop
  endfacet
  facet normal 0.26963 0.962964 0
    outer loop
      vertex -25 0 -16.2
      vertex 0 -7 -37.2
      vertex -25 0 -37.2
    endloop
  endfacet
  facet normal -0 0 -1
    outer loop
      vertex 25 0 -16.2
      vertex 1.48153 -0.234652 -16.2
      vertex 1.5 0 -16.2
    endloop
  endfacet
  facet normal 0 0 -1
    outer loop
      vertex 25 0 -16.2
      vertex 1.42658 -0.463525 -16.2
      vertex 1.48153 -0.234652 -16.2
    endloop
  endfacet
  facet normal 0 0 -1
    outer loop
      vertex 25 0 -16.2
      vertex 1.33651 -0.680985 -16.2
      vertex 1.42658 -0.463525 -16.2
    endloop
  endfacet
  facet normal 0 0 -1
    outer loop
      vertex 0 -7 -16.2
      vertex 1.33651 -0.680985 -16.2
      vertex 25 0 -16.2
    endloop
  endfacet
  facet normal 0 0 -1
    outer loop
      vertex 1.33651 -0.680985 -16.2
      vertex 0 -7 -16.2
      vertex 1.21352 -0.881678 -16.2
    endloop
  endfacet
  facet normal 0 0 -1
    outer loop
      vertex 1.21352 -0.881678 -16.2
      vertex 0 -7 -16.2
      vertex 1.06066 -1.06066 -16.2
    endloop
  endfacet
  facet normal 0 0 -1
    outer loop
      vertex 1.06066 -1.06066 -16.2
      vertex 0 -7 -16.2
      vertex 0.881678 -1.21352 -16.2
    endloop
  endfacet
  facet normal 0 0 -1
    outer loop
      vertex 0.881678 -1.21352 -16.2
      vertex 0 -7 -16.2
      vertex 0.680985 -1.33651 -16.2
    endloop
  endfacet
  facet normal 0 0 -1
    outer loop
      vertex 0.680985 -1.33651 -16.2
      vertex 0 -7 -16.2
      vertex 0.463525 -1.42658 -16.2
    endloop
  endfacet
  facet normal 0 0 -1
    outer loop
      vertex 0.463525 -1.42658 -16.2
      vertex 0 -7 -16.2
      vertex 0.234652 -1.48153 -16.2
    endloop
  endfacet
  facet normal 0 0 -1
    outer loop
      vertex 0 -7 -16.2
      vertex 0 -1.5 -16.2
      vertex 0.234652 -1.48153 -16.2
    endloop
  endfacet
  facet normal 0 0 -1
    outer loop
      vertex 0 -7 -16.2
      vertex -0.234652 -1.48153 -16.2
      vertex 0 -1.5 -16.2
    endloop
  endfacet
  facet normal 0 0 -1
    outer loop
      vertex 0 -7 -16.2
      vertex -0.463525 -1.42658 -16.2
      vertex -0.234652 -1.48153 -16.2
    endloop
  endfacet
  facet normal 0 0 -1
    outer loop
      vertex 0 -7 -16.2
      vertex -0.680985 -1.33651 -16.2
      vertex -0.463525 -1.42658 -16.2
    endloop
  endfacet
  facet normal 0 0 -1
    outer loop
      vertex 0 -7 -16.2
      vertex -0.881678 -1.21352 -16.2
      vertex -0.680985 -1.33651 -16.2
    endloop
  endfacet
  facet normal 0 0 -1
    outer loop
      vertex 0 -7 -16.2
      vertex -1.06066 -1.06066 -16.2
      vertex -0.881678 -1.21352 -16.2
    endloop
  endfacet
  facet normal 0 0 -1
    outer loop
      vertex 0 -7 -16.2
      vertex -1.21352 -0.881678 -16.2
      vertex -1.06066 -1.06066 -16.2
    endloop
  endfacet
  facet normal 0 0 -1
    outer loop
      vertex 0 -7 -16.2
      vertex -1.33651 -0.680985 -16.2
      vertex -1.21352 -0.881678 -16.2
    endloop
  endfacet
  facet normal 0 0 -1
    outer loop
      vertex -25 0 -16.2
      vertex -1.33651 -0.680985 -16.2
      vertex 0 -7 -16.2
    endloop
  endfacet
  facet normal 0 0 -1
    outer loop
      vertex -1.33651 -0.680985 -16.2
      vertex -25 0 -16.2
      vertex -1.42658 -0.463525 -16.2
    endloop
  endfacet
  facet normal 0 0 -1
    outer loop
      vertex -1.48153 -0.234652 -16.2
      vertex -25 0 -16.2
      vertex -1.5 0 -16.2
    endloop
  endfacet
  facet normal 0 0 -1
    outer loop
      vertex -1.42658 -0.463525 -16.2
      vertex -25 0 -16.2
      vertex -1.48153 -0.234652 -16.2
    endloop
  endfacet
  facet normal 0 0 -1
    outer loop
      vertex 1.48153 0.234652 -16.2
      vertex 25 0 -16.2
      vertex 1.5 0 -16.2
    endloop
  endfacet
  facet normal 0 0 -1
    outer loop
      vertex 1.42658 0.463525 -16.2
      vertex 25 0 -16.2
      vertex 1.48153 0.234652 -16.2
    endloop
  endfacet
  facet normal 0 0 -1
    outer loop
      vertex 1.33651 0.680985 -16.2
      vertex 25 0 -16.2
      vertex 1.42658 0.463525 -16.2
    endloop
  endfacet
  facet normal 0 0 -1
    outer loop
      vertex 0 7 -16.2
      vertex 1.33651 0.680985 -16.2
      vertex 1.21352 0.881678 -16.2
    endloop
  endfacet
  facet normal 0 0 -1
    outer loop
      vertex 0 7 -16.2
      vertex 1.21352 0.881678 -16.2
      vertex 1.06066 1.06066 -16.2
    endloop
  endfacet
  facet normal 0 0 -1
    outer loop
      vertex 0 7 -16.2
      vertex 1.06066 1.06066 -16.2
      vertex 0.881678 1.21352 -16.2
    endloop
  endfacet
  facet normal 0 0 -1
    outer loop
      vertex 0 7 -16.2
      vertex 0.881678 1.21352 -16.2
      vertex 0.680985 1.33651 -16.2
    endloop
  endfacet
  facet normal 0 0 -1
    outer loop
      vertex 0 7 -16.2
      vertex 0.680985 1.33651 -16.2
      vertex 0.463525 1.42658 -16.2
    endloop
  endfacet
  facet normal 0 0 -1
    outer loop
      vertex 0 7 -16.2
      vertex 0.463525 1.42658 -16.2
      vertex 0.234652 1.48153 -16.2
    endloop
  endfacet
  facet normal 0 0 -1
    outer loop
      vertex 0 7 -16.2
      vertex 0.234652 1.48153 -16.2
      vertex 0 1.5 -16.2
    endloop
  endfacet
  facet normal 0 0 -1
    outer loop
      vertex 1.33651 0.680985 -16.2
      vertex 0 7 -16.2
      vertex 25 0 -16.2
    endloop
  endfacet
  facet normal 0 0 -1
    outer loop
      vertex -0.234652 1.48153 -16.2
      vertex 0 7 -16.2
      vertex 0 1.5 -16.2
    endloop
  endfacet
  facet normal 0 0 -1
    outer loop
      vertex -0.463525 1.42658 -16.2
      vertex 0 7 -16.2
      vertex -0.234652 1.48153 -16.2
    endloop
  endfacet
  facet normal 0 0 -1
    outer loop
      vertex -0.680985 1.33651 -16.2
      vertex 0 7 -16.2
      vertex -0.463525 1.42658 -16.2
    endloop
  endfacet
  facet normal 0 0 -1
    outer loop
      vertex -0.881678 1.21352 -16.2
      vertex 0 7 -16.2
      vertex -0.680985 1.33651 -16.2
    endloop
  endfacet
  facet normal 0 0 -1
    outer loop
      vertex -1.06066 1.06066 -16.2
      vertex 0 7 -16.2
      vertex -0.881678 1.21352 -16.2
    endloop
  endfacet
  facet normal 0 0 -1
    outer loop
      vertex -1.21352 0.881678 -16.2
      vertex 0 7 -16.2
      vertex -1.06066 1.06066 -16.2
    endloop
  endfacet
  facet normal 0 0 -1
    outer loop
      vertex -1.33651 0.680985 -16.2
      vertex 0 7 -16.2
      vertex -1.21352 0.881678 -16.2
    endloop
  endfacet
  facet normal 0 0 -1
    outer loop
      vertex -25 0 -16.2
      vertex -1.33651 0.680985 -16.2
      vertex -1.42658 0.463525 -16.2
    endloop
  endfacet
  facet normal 0 0 -1
    outer loop
      vertex -25 0 -16.2
      vertex -1.42658 0.463525 -16.2
      vertex -1.48153 0.234652 -16.2
    endloop
  endfacet
  facet normal -0 0 -1
    outer loop
      vertex -1.33651 0.680985 -16.2
      vertex -25 0 -16.2
      vertex 0 7 -16.2
    endloop
  endfacet
  facet normal 0 0 -1
    outer loop
      vertex -25 0 -16.2
      vertex -1.48153 0.234652 -16.2
      vertex -1.5 0 -16.2
    endloop
  endfacet
  facet normal -0.996917 -0.0784696 0
    outer loop
      vertex 1.5 0 -16.2
      vertex 1.48153 0.234652 -12
      vertex 1.48153 0.234652 -16.2
    endloop
  endfacet
  facet normal -0.996917 -0.0784696 0
    outer loop
      vertex 1.48153 0.234652 -12
      vertex 1.5 0 -16.2
      vertex 1.5 0 -12
    endloop
  endfacet
  facet normal 0.996917 -0.0784696 0
    outer loop
      vertex -1.5 0 -12
      vertex -1.48153 0.234652 -16.2
      vertex -1.48153 0.234652 -12
    endloop
  endfacet
  facet normal 0.996917 -0.0784696 0
    outer loop
      vertex -1.48153 0.234652 -16.2
      vertex -1.5 0 -12
      vertex -1.5 0 -16.2
    endloop
  endfacet
  facet normal -0.0784696 -0.996917 0
    outer loop
      vertex 0 1.5 -16.2
      vertex 0.234652 1.48153 -12
      vertex 0 1.5 -12
    endloop
  endfacet
  facet normal -0.0784696 -0.996917 -0
    outer loop
      vertex 0.234652 1.48153 -12
      vertex 0 1.5 -16.2
      vertex 0.234652 1.48153 -16.2
    endloop
  endfacet
  facet normal 0.0784696 0.996917 -0
    outer loop
      vertex 0 -1.5 -16.2
      vertex -0.234652 -1.48153 -12
      vertex 0 -1.5 -12
    endloop
  endfacet
  facet normal 0.0784696 0.996917 0
    outer loop
      vertex -0.234652 -1.48153 -12
      vertex 0 -1.5 -16.2
      vertex -0.234652 -1.48153 -16.2
    endloop
  endfacet
  facet normal 0.760417 0.649436 0
    outer loop
      vertex -1.06066 -1.06066 -12
      vertex -1.21352 -0.881678 -16.2
      vertex -1.21352 -0.881678 -12
    endloop
  endfacet
  facet normal 0.760417 0.649436 0
    outer loop
      vertex -1.21352 -0.881678 -16.2
      vertex -1.06066 -1.06066 -12
      vertex -1.06066 -1.06066 -16.2
    endloop
  endfacet
  facet normal -0.649436 -0.760417 0
    outer loop
      vertex 0.881678 1.21352 -16.2
      vertex 1.06066 1.06066 -12
      vertex 0.881678 1.21352 -12
    endloop
  endfacet
  facet normal -0.649436 -0.760417 -0
    outer loop
      vertex 1.06066 1.06066 -12
      vertex 0.881678 1.21352 -16.2
      vertex 1.06066 1.06066 -16.2
    endloop
  endfacet
  facet normal 0.649436 -0.760417 0
    outer loop
      vertex -1.06066 1.06066 -16.2
      vertex -0.881678 1.21352 -12
      vertex -1.06066 1.06066 -12
    endloop
  endfacet
  facet normal 0.649436 -0.760417 0
    outer loop
      vertex -0.881678 1.21352 -12
      vertex -1.06066 1.06066 -16.2
      vertex -0.881678 1.21352 -16.2
    endloop
  endfacet
  facet normal 0.382666 -0.923887 0
    outer loop
      vertex -0.680985 1.33651 -16.2
      vertex -0.463525 1.42658 -12
      vertex -0.680985 1.33651 -12
    endloop
  endfacet
  facet normal 0.382666 -0.923887 0
    outer loop
      vertex -0.463525 1.42658 -12
      vertex -0.680985 1.33651 -16.2
      vertex -0.463525 1.42658 -16.2
    endloop
  endfacet
  facet normal -0.85263 0.522515 0
    outer loop
      vertex 1.21352 -0.881678 -16.2
      vertex 1.33651 -0.680985 -12
      vertex 1.33651 -0.680985 -16.2
    endloop
  endfacet
  facet normal -0.85263 0.522515 0
    outer loop
      vertex 1.33651 -0.680985 -12
      vertex 1.21352 -0.881678 -16.2
      vertex 1.21352 -0.881678 -12
    endloop
  endfacet
  facet normal 0.923887 0.382666 0
    outer loop
      vertex -1.33651 -0.680985 -12
      vertex -1.42658 -0.463525 -16.2
      vertex -1.42658 -0.463525 -12
    endloop
  endfacet
  facet normal 0.923887 0.382666 0
    outer loop
      vertex -1.42658 -0.463525 -16.2
      vertex -1.33651 -0.680985 -12
      vertex -1.33651 -0.680985 -16.2
    endloop
  endfacet
  facet normal -0.923887 -0.382666 0
    outer loop
      vertex 1.42658 0.463525 -16.2
      vertex 1.33651 0.680985 -12
      vertex 1.33651 0.680985 -16.2
    endloop
  endfacet
  facet normal -0.923887 -0.382666 0
    outer loop
      vertex 1.33651 0.680985 -12
      vertex 1.42658 0.463525 -16.2
      vertex 1.42658 0.463525 -12
    endloop
  endfacet
  facet normal -0.972368 -0.233455 0
    outer loop
      vertex 1.48153 0.234652 -16.2
      vertex 1.42658 0.463525 -12
      vertex 1.42658 0.463525 -16.2
    endloop
  endfacet
  facet normal -0.972368 -0.233455 0
    outer loop
      vertex 1.42658 0.463525 -12
      vertex 1.48153 0.234652 -16.2
      vertex 1.48153 0.234652 -12
    endloop
  endfacet
  facet normal -0.85263 -0.522515 0
    outer loop
      vertex 1.33651 0.680985 -16.2
      vertex 1.21352 0.881678 -12
      vertex 1.21352 0.881678 -16.2
    endloop
  endfacet
  facet normal -0.85263 -0.522515 0
    outer loop
      vertex 1.21352 0.881678 -12
      vertex 1.33651 0.680985 -16.2
      vertex 1.33651 0.680985 -12
    endloop
  endfacet
  facet normal -0.382666 -0.923887 0
    outer loop
      vertex 0.463525 1.42658 -16.2
      vertex 0.680985 1.33651 -12
      vertex 0.463525 1.42658 -12
    endloop
  endfacet
  facet normal -0.382666 -0.923887 -0
    outer loop
      vertex 0.680985 1.33651 -12
      vertex 0.463525 1.42658 -16.2
      vertex 0.680985 1.33651 -16.2
    endloop
  endfacet
  facet normal -0.233455 -0.972368 0
    outer loop
      vertex 0.234652 1.48153 -16.2
      vertex 0.463525 1.42658 -12
      vertex 0.234652 1.48153 -12
    endloop
  endfacet
  facet normal -0.233455 -0.972368 -0
    outer loop
      vertex 0.463525 1.42658 -12
      vertex 0.234652 1.48153 -16.2
      vertex 0.463525 1.42658 -16.2
    endloop
  endfacet
  facet normal -0.522515 -0.85263 0
    outer loop
      vertex 0.680985 1.33651 -16.2
      vertex 0.881678 1.21352 -12
      vertex 0.680985 1.33651 -12
    endloop
  endfacet
  facet normal -0.522515 -0.85263 -0
    outer loop
      vertex 0.881678 1.21352 -12
      vertex 0.680985 1.33651 -16.2
      vertex 0.881678 1.21352 -16.2
    endloop
  endfacet
  facet normal 0.85263 -0.522515 0
    outer loop
      vertex -1.33651 0.680985 -12
      vertex -1.21352 0.881678 -16.2
      vertex -1.21352 0.881678 -12
    endloop
  endfacet
  facet normal 0.85263 -0.522515 0
    outer loop
      vertex -1.21352 0.881678 -16.2
      vertex -1.33651 0.680985 -12
      vertex -1.33651 0.680985 -16.2
    endloop
  endfacet
  facet normal 0.760417 -0.649436 0
    outer loop
      vertex -1.21352 0.881678 -12
      vertex -1.06066 1.06066 -16.2
      vertex -1.06066 1.06066 -12
    endloop
  endfacet
  facet normal 0.760417 -0.649436 0
    outer loop
      vertex -1.06066 1.06066 -16.2
      vertex -1.21352 0.881678 -12
      vertex -1.21352 0.881678 -16.2
    endloop
  endfacet
  facet normal 0.522515 -0.85263 0
    outer loop
      vertex -0.881678 1.21352 -16.2
      vertex -0.680985 1.33651 -12
      vertex -0.881678 1.21352 -12
    endloop
  endfacet
  facet normal 0.522515 -0.85263 0
    outer loop
      vertex -0.680985 1.33651 -12
      vertex -0.881678 1.21352 -16.2
      vertex -0.680985 1.33651 -16.2
    endloop
  endfacet
  facet normal 0.0784696 -0.996917 0
    outer loop
      vertex -0.234652 1.48153 -16.2
      vertex 0 1.5 -12
      vertex -0.234652 1.48153 -12
    endloop
  endfacet
  facet normal 0.0784696 -0.996917 0
    outer loop
      vertex 0 1.5 -12
      vertex -0.234652 1.48153 -16.2
      vertex 0 1.5 -16.2
    endloop
  endfacet
  facet normal -0.996917 0.0784696 0
    outer loop
      vertex 1.48153 -0.234652 -16.2
      vertex 1.5 0 -12
      vertex 1.5 0 -16.2
    endloop
  endfacet
  facet normal -0.996917 0.0784696 0
    outer loop
      vertex 1.5 0 -12
      vertex 1.48153 -0.234652 -16.2
      vertex 1.48153 -0.234652 -12
    endloop
  endfacet
  facet normal -0.382666 0.923887 0
    outer loop
      vertex 0.680985 -1.33651 -16.2
      vertex 0.463525 -1.42658 -12
      vertex 0.680985 -1.33651 -12
    endloop
  endfacet
  facet normal -0.382666 0.923887 0
    outer loop
      vertex 0.463525 -1.42658 -12
      vertex 0.680985 -1.33651 -16.2
      vertex 0.463525 -1.42658 -16.2
    endloop
  endfacet
  facet normal -0.0784696 0.996917 0
    outer loop
      vertex 0.234652 -1.48153 -16.2
      vertex 0 -1.5 -12
      vertex 0.234652 -1.48153 -12
    endloop
  endfacet
  facet normal -0.0784696 0.996917 0
    outer loop
      vertex 0 -1.5 -12
      vertex 0.234652 -1.48153 -16.2
      vertex 0 -1.5 -16.2
    endloop
  endfacet
  facet normal -0.522515 0.85263 0
    outer loop
      vertex 0.881678 -1.21352 -16.2
      vertex 0.680985 -1.33651 -12
      vertex 0.881678 -1.21352 -12
    endloop
  endfacet
  facet normal -0.522515 0.85263 0
    outer loop
      vertex 0.680985 -1.33651 -12
      vertex 0.881678 -1.21352 -16.2
      vertex 0.680985 -1.33651 -16.2
    endloop
  endfacet
  facet normal 0.649436 0.760417 -0
    outer loop
      vertex -0.881678 -1.21352 -16.2
      vertex -1.06066 -1.06066 -12
      vertex -0.881678 -1.21352 -12
    endloop
  endfacet
  facet normal 0.649436 0.760417 0
    outer loop
      vertex -1.06066 -1.06066 -12
      vertex -0.881678 -1.21352 -16.2
      vertex -1.06066 -1.06066 -16.2
    endloop
  endfacet
  facet normal 0.85263 0.522515 0
    outer loop
      vertex -1.21352 -0.881678 -12
      vertex -1.33651 -0.680985 -16.2
      vertex -1.33651 -0.680985 -12
    endloop
  endfacet
  facet normal 0.85263 0.522515 0
    outer loop
      vertex -1.33651 -0.680985 -16.2
      vertex -1.21352 -0.881678 -12
      vertex -1.21352 -0.881678 -16.2
    endloop
  endfacet
  facet normal 0.996917 0.0784696 0
    outer loop
      vertex -1.48153 -0.234652 -12
      vertex -1.5 0 -16.2
      vertex -1.5 0 -12
    endloop
  endfacet
  facet normal 0.996917 0.0784696 0
    outer loop
      vertex -1.5 0 -16.2
      vertex -1.48153 -0.234652 -12
      vertex -1.48153 -0.234652 -16.2
    endloop
  endfacet
  facet normal -0.760417 -0.649436 0
    outer loop
      vertex 1.21352 0.881678 -16.2
      vertex 1.06066 1.06066 -12
      vertex 1.06066 1.06066 -16.2
    endloop
  endfacet
  facet normal -0.760417 -0.649436 0
    outer loop
      vertex 1.06066 1.06066 -12
      vertex 1.21352 0.881678 -16.2
      vertex 1.21352 0.881678 -12
    endloop
  endfacet
  facet normal 0.923887 -0.382666 0
    outer loop
      vertex -1.42658 0.463525 -12
      vertex -1.33651 0.680985 -16.2
      vertex -1.33651 0.680985 -12
    endloop
  endfacet
  facet normal 0.923887 -0.382666 0
    outer loop
      vertex -1.33651 0.680985 -16.2
      vertex -1.42658 0.463525 -12
      vertex -1.42658 0.463525 -16.2
    endloop
  endfacet
  facet normal 0.972368 -0.233455 0
    outer loop
      vertex -1.48153 0.234652 -12
      vertex -1.42658 0.463525 -16.2
      vertex -1.42658 0.463525 -12
    endloop
  endfacet
  facet normal 0.972368 -0.233455 0
    outer loop
      vertex -1.42658 0.463525 -16.2
      vertex -1.48153 0.234652 -12
      vertex -1.48153 0.234652 -16.2
    endloop
  endfacet
  facet normal 0.233455 -0.972368 0
    outer loop
      vertex -0.463525 1.42658 -16.2
      vertex -0.234652 1.48153 -12
      vertex -0.463525 1.42658 -12
    endloop
  endfacet
  facet normal 0.233455 -0.972368 0
    outer loop
      vertex -0.234652 1.48153 -12
      vertex -0.463525 1.42658 -16.2
      vertex -0.234652 1.48153 -16.2
    endloop
  endfacet
  facet normal -0.233455 0.972368 0
    outer loop
      vertex 0.463525 -1.42658 -16.2
      vertex 0.234652 -1.48153 -12
      vertex 0.463525 -1.42658 -12
    endloop
  endfacet
  facet normal -0.233455 0.972368 0
    outer loop
      vertex 0.234652 -1.48153 -12
      vertex 0.463525 -1.42658 -16.2
      vertex 0.234652 -1.48153 -16.2
    endloop
  endfacet
  facet normal -0.649436 0.760417 0
    outer loop
      vertex 1.06066 -1.06066 -16.2
      vertex 0.881678 -1.21352 -12
      vertex 1.06066 -1.06066 -12
    endloop
  endfacet
  facet normal -0.649436 0.760417 0
    outer loop
      vertex 0.881678 -1.21352 -12
      vertex 1.06066 -1.06066 -16.2
      vertex 0.881678 -1.21352 -16.2
    endloop
  endfacet
  facet normal -0.972368 0.233455 0
    outer loop
      vertex 1.42658 -0.463525 -16.2
      vertex 1.48153 -0.234652 -12
      vertex 1.48153 -0.234652 -16.2
    endloop
  endfacet
  facet normal -0.972368 0.233455 0
    outer loop
      vertex 1.48153 -0.234652 -12
      vertex 1.42658 -0.463525 -16.2
      vertex 1.42658 -0.463525 -12
    endloop
  endfacet
  facet normal 0.522515 0.85263 -0
    outer loop
      vertex -0.680985 -1.33651 -16.2
      vertex -0.881678 -1.21352 -12
      vertex -0.680985 -1.33651 -12
    endloop
  endfacet
  facet normal 0.522515 0.85263 0
    outer loop
      vertex -0.881678 -1.21352 -12
      vertex -0.680985 -1.33651 -16.2
      vertex -0.881678 -1.21352 -16.2
    endloop
  endfacet
  facet normal 0.382666 0.923887 -0
    outer loop
      vertex -0.463525 -1.42658 -16.2
      vertex -0.680985 -1.33651 -12
      vertex -0.463525 -1.42658 -12
    endloop
  endfacet
  facet normal 0.382666 0.923887 0
    outer loop
      vertex -0.680985 -1.33651 -12
      vertex -0.463525 -1.42658 -16.2
      vertex -0.680985 -1.33651 -16.2
    endloop
  endfacet
  facet normal 0.972368 0.233455 0
    outer loop
      vertex -1.42658 -0.463525 -12
      vertex -1.48153 -0.234652 -16.2
      vertex -1.48153 -0.234652 -12
    endloop
  endfacet
  facet normal 0.972368 0.233455 0
    outer loop
      vertex -1.48153 -0.234652 -16.2
      vertex -1.42658 -0.463525 -12
      vertex -1.42658 -0.463525 -16.2
    endloop
  endfacet
  facet normal -0.760417 0.649436 0
    outer loop
      vertex 1.06066 -1.06066 -16.2
      vertex 1.21352 -0.881678 -12
      vertex 1.21352 -0.881678 -16.2
    endloop
  endfacet
  facet normal -0.760417 0.649436 0
    outer loop
      vertex 1.21352 -0.881678 -12
      vertex 1.06066 -1.06066 -16.2
      vertex 1.06066 -1.06066 -12
    endloop
  endfacet
  facet normal -0.923887 0.382666 0
    outer loop
      vertex 1.33651 -0.680985 -16.2
      vertex 1.42658 -0.463525 -12
      vertex 1.42658 -0.463525 -16.2
    endloop
  endfacet
  facet normal -0.923887 0.382666 0
    outer loop
      vertex 1.42658 -0.463525 -12
      vertex 1.33651 -0.680985 -16.2
      vertex 1.33651 -0.680985 -12
    endloop
  endfacet
  facet normal 0.233455 0.972368 -0
    outer loop
      vertex -0.234652 -1.48153 -16.2
      vertex -0.463525 -1.42658 -12
      vertex -0.234652 -1.48153 -12
    endloop
  endfacet
  facet normal 0.233455 0.972368 0
    outer loop
      vertex -0.463525 -1.42658 -12
      vertex -0.234652 -1.48153 -16.2
      vertex -0.463525 -1.42658 -16.2
    endloop
  endfacet
  facet normal 0.996917 0.0784645 0
    outer loop
      vertex 4 0 -5
      vertex 3.95075 0.625737 -12
      vertex 3.95075 0.625737 -5
    endloop
  endfacet
  facet normal 0.996917 0.0784645 0
    outer loop
      vertex 3.95075 0.625737 -12
      vertex 4 0 -5
      vertex 4 0 -12
    endloop
  endfacet
  facet normal -0.996917 0.0784645 0
    outer loop
      vertex -4 0 -12
      vertex -3.95075 0.625737 -5
      vertex -3.95075 0.625737 -12
    endloop
  endfacet
  facet normal -0.996917 0.0784645 0
    outer loop
      vertex -3.95075 0.625737 -5
      vertex -4 0 -12
      vertex -4 0 -5
    endloop
  endfacet
  facet normal 0.0784645 0.996917 -0
    outer loop
      vertex 0.625737 3.95075 -12
      vertex 0 4 -5
      vertex 0.625737 3.95075 -5
    endloop
  endfacet
  facet normal 0.0784645 0.996917 0
    outer loop
      vertex 0 4 -5
      vertex 0.625737 3.95075 -12
      vertex 0 4 -12
    endloop
  endfacet
  facet normal -0.0784645 -0.996917 0
    outer loop
      vertex -0.625737 -3.95075 -12
      vertex 0 -4 -5
      vertex -0.625737 -3.95075 -5
    endloop
  endfacet
  facet normal -0.0784645 -0.996917 -0
    outer loop
      vertex 0 -4 -5
      vertex -0.625737 -3.95075 -12
      vertex 0 -4 -12
    endloop
  endfacet
  facet normal -0.760409 -0.649444 0
    outer loop
      vertex -2.82843 -2.82843 -12
      vertex -3.23607 -2.35114 -5
      vertex -3.23607 -2.35114 -12
    endloop
  endfacet
  facet normal -0.760409 -0.649444 0
    outer loop
      vertex -3.23607 -2.35114 -5
      vertex -2.82843 -2.82843 -12
      vertex -2.82843 -2.82843 -5
    endloop
  endfacet
  facet normal 0.649444 0.760409 -0
    outer loop
      vertex 2.82843 2.82843 -12
      vertex 2.35114 3.23607 -5
      vertex 2.82843 2.82843 -5
    endloop
  endfacet
  facet normal 0.649444 0.760409 0
    outer loop
      vertex 2.35114 3.23607 -5
      vertex 2.82843 2.82843 -12
      vertex 2.35114 3.23607 -12
    endloop
  endfacet
  facet normal -0.649444 0.760409 0
    outer loop
      vertex -2.35114 3.23607 -12
      vertex -2.82843 2.82843 -5
      vertex -2.35114 3.23607 -5
    endloop
  endfacet
  facet normal -0.649444 0.760409 0
    outer loop
      vertex -2.82843 2.82843 -5
      vertex -2.35114 3.23607 -12
      vertex -2.82843 2.82843 -12
    endloop
  endfacet
  facet normal -0.382686 0.923879 0
    outer loop
      vertex -1.23607 3.80423 -12
      vertex -1.81596 3.56403 -5
      vertex -1.23607 3.80423 -5
    endloop
  endfacet
  facet normal -0.382686 0.923879 0
    outer loop
      vertex -1.81596 3.56403 -5
      vertex -1.23607 3.80423 -12
      vertex -1.81596 3.56403 -12
    endloop
  endfacet
  facet normal 0.760409 -0.649444 0
    outer loop
      vertex 2.82843 -2.82843 -5
      vertex 3.23607 -2.35114 -12
      vertex 3.23607 -2.35114 -5
    endloop
  endfacet
  facet normal 0.760409 -0.649444 0
    outer loop
      vertex 3.23607 -2.35114 -12
      vertex 2.82843 -2.82843 -5
      vertex 2.82843 -2.82843 -12
    endloop
  endfacet
  facet normal 0.852639 0.5225 0
    outer loop
      vertex 3.56403 1.81596 -5
      vertex 3.23607 2.35114 -12
      vertex 3.23607 2.35114 -5
    endloop
  endfacet
  facet normal 0.852639 0.5225 0
    outer loop
      vertex 3.23607 2.35114 -12
      vertex 3.56403 1.81596 -5
      vertex 3.56403 1.81596 -12
    endloop
  endfacet
  facet normal 0.972373 0.233433 0
    outer loop
      vertex 3.95075 0.625737 -5
      vertex 3.80423 1.23607 -12
      vertex 3.80423 1.23607 -5
    endloop
  endfacet
  facet normal 0.972373 0.233433 0
    outer loop
      vertex 3.80423 1.23607 -12
      vertex 3.95075 0.625737 -5
      vertex 3.95075 0.625737 -12
    endloop
  endfacet
  facet normal 0.760409 0.649444 0
    outer loop
      vertex 3.23607 2.35114 -5
      vertex 2.82843 2.82843 -12
      vertex 2.82843 2.82843 -5
    endloop
  endfacet
  facet normal 0.760409 0.649444 0
    outer loop
      vertex 2.82843 2.82843 -12
      vertex 3.23607 2.35114 -5
      vertex 3.23607 2.35114 -12
    endloop
  endfacet
  facet normal 0.382686 0.923879 -0
    outer loop
      vertex 1.81596 3.56403 -12
      vertex 1.23607 3.80423 -5
      vertex 1.81596 3.56403 -5
    endloop
  endfacet
  facet normal 0.382686 0.923879 0
    outer loop
      vertex 1.23607 3.80423 -5
      vertex 1.81596 3.56403 -12
      vertex 1.23607 3.80423 -12
    endloop
  endfacet
  facet normal 0.233433 0.972373 -0
    outer loop
      vertex 1.23607 3.80423 -12
      vertex 0.625737 3.95075 -5
      vertex 1.23607 3.80423 -5
    endloop
  endfacet
  facet normal 0.233433 0.972373 0
    outer loop
      vertex 0.625737 3.95075 -5
      vertex 1.23607 3.80423 -12
      vertex 0.625737 3.95075 -12
    endloop
  endfacet
  facet normal 0.5225 0.852639 -0
    outer loop
      vertex 2.35114 3.23607 -12
      vertex 1.81596 3.56403 -5
      vertex 2.35114 3.23607 -5
    endloop
  endfacet
  facet normal 0.5225 0.852639 0
    outer loop
      vertex 1.81596 3.56403 -5
      vertex 2.35114 3.23607 -12
      vertex 1.81596 3.56403 -12
    endloop
  endfacet
  facet normal -0.852639 0.5225 0
    outer loop
      vertex -3.56403 1.81596 -12
      vertex -3.23607 2.35114 -5
      vertex -3.23607 2.35114 -12
    endloop
  endfacet
  facet normal -0.852639 0.5225 0
    outer loop
      vertex -3.23607 2.35114 -5
      vertex -3.56403 1.81596 -12
      vertex -3.56403 1.81596 -5
    endloop
  endfacet
  facet normal -0.760409 0.649444 0
    outer loop
      vertex -3.23607 2.35114 -12
      vertex -2.82843 2.82843 -5
      vertex -2.82843 2.82843 -12
    endloop
  endfacet
  facet normal -0.760409 0.649444 0
    outer loop
      vertex -2.82843 2.82843 -5
      vertex -3.23607 2.35114 -12
      vertex -3.23607 2.35114 -5
    endloop
  endfacet
  facet normal -0.923879 0.382686 0
    outer loop
      vertex -3.80423 1.23607 -12
      vertex -3.56403 1.81596 -5
      vertex -3.56403 1.81596 -12
    endloop
  endfacet
  facet normal -0.923879 0.382686 0
    outer loop
      vertex -3.56403 1.81596 -5
      vertex -3.80423 1.23607 -12
      vertex -3.80423 1.23607 -5
    endloop
  endfacet
  facet normal -0.5225 0.852639 0
    outer loop
      vertex -1.81596 3.56403 -12
      vertex -2.35114 3.23607 -5
      vertex -1.81596 3.56403 -5
    endloop
  endfacet
  facet normal -0.5225 0.852639 0
    outer loop
      vertex -2.35114 3.23607 -5
      vertex -1.81596 3.56403 -12
      vertex -2.35114 3.23607 -12
    endloop
  endfacet
  facet normal -0.233433 0.972373 0
    outer loop
      vertex -0.625737 3.95075 -12
      vertex -1.23607 3.80423 -5
      vertex -0.625737 3.95075 -5
    endloop
  endfacet
  facet normal -0.233433 0.972373 0
    outer loop
      vertex -1.23607 3.80423 -5
      vertex -0.625737 3.95075 -12
      vertex -1.23607 3.80423 -12
    endloop
  endfacet
  facet normal 0.5225 -0.852639 0
    outer loop
      vertex 1.81596 -3.56403 -12
      vertex 2.35114 -3.23607 -5
      vertex 1.81596 -3.56403 -5
    endloop
  endfacet
  facet normal 0.5225 -0.852639 0
    outer loop
      vertex 2.35114 -3.23607 -5
      vertex 1.81596 -3.56403 -12
      vertex 2.35114 -3.23607 -12
    endloop
  endfacet
  facet normal -0.649444 -0.760409 0
    outer loop
      vertex -2.82843 -2.82843 -12
      vertex -2.35114 -3.23607 -5
      vertex -2.82843 -2.82843 -5
    endloop
  endfacet
  facet normal -0.649444 -0.760409 -0
    outer loop
      vertex -2.35114 -3.23607 -5
      vertex -2.82843 -2.82843 -12
      vertex -2.35114 -3.23607 -12
    endloop
  endfacet
  facet normal -0.382686 -0.923879 0
    outer loop
      vertex -1.81596 -3.56403 -12
      vertex -1.23607 -3.80423 -5
      vertex -1.81596 -3.56403 -5
    endloop
  endfacet
  facet normal -0.382686 -0.923879 -0
    outer loop
      vertex -1.23607 -3.80423 -5
      vertex -1.81596 -3.56403 -12
      vertex -1.23607 -3.80423 -12
    endloop
  endfacet
  facet normal -0.852639 -0.5225 0
    outer loop
      vertex -3.23607 -2.35114 -12
      vertex -3.56403 -1.81596 -5
      vertex -3.56403 -1.81596 -12
    endloop
  endfacet
  facet normal -0.852639 -0.5225 0
    outer loop
      vertex -3.56403 -1.81596 -5
      vertex -3.23607 -2.35114 -12
      vertex -3.23607 -2.35114 -5
    endloop
  endfacet
  facet normal 0.923879 0.382686 0
    outer loop
      vertex 3.80423 1.23607 -5
      vertex 3.56403 1.81596 -12
      vertex 3.56403 1.81596 -5
    endloop
  endfacet
  facet normal 0.923879 0.382686 0
    outer loop
      vertex 3.56403 1.81596 -12
      vertex 3.80423 1.23607 -5
      vertex 3.80423 1.23607 -12
    endloop
  endfacet
  facet normal -0.972373 0.233433 0
    outer loop
      vertex -3.95075 0.625737 -12
      vertex -3.80423 1.23607 -5
      vertex -3.80423 1.23607 -12
    endloop
  endfacet
  facet normal -0.972373 0.233433 0
    outer loop
      vertex -3.80423 1.23607 -5
      vertex -3.95075 0.625737 -12
      vertex -3.95075 0.625737 -5
    endloop
  endfacet
  facet normal 0 0 1
    outer loop
      vertex 3.95075 0.625737 -5
      vertex 3.95075 -0.625737 -5
      vertex 4 0 -5
    endloop
  endfacet
  facet normal 0 0 1
    outer loop
      vertex 3.80423 1.23607 -5
      vertex 3.95075 -0.625737 -5
      vertex 3.95075 0.625737 -5
    endloop
  endfacet
  facet normal 0 0 1
    outer loop
      vertex 3.80423 1.23607 -5
      vertex 3.80423 -1.23607 -5
      vertex 3.95075 -0.625737 -5
    endloop
  endfacet
  facet normal 0 0 1
    outer loop
      vertex 3.56403 1.81596 -5
      vertex 3.80423 -1.23607 -5
      vertex 3.80423 1.23607 -5
    endloop
  endfacet
  facet normal 0 0 1
    outer loop
      vertex 3.56403 1.81596 -5
      vertex 3.56403 -1.81596 -5
      vertex 3.80423 -1.23607 -5
    endloop
  endfacet
  facet normal 0 0 1
    outer loop
      vertex 3.23607 2.35114 -5
      vertex 3.56403 -1.81596 -5
      vertex 3.56403 1.81596 -5
    endloop
  endfacet
  facet normal 0 0 1
    outer loop
      vertex 3.23607 2.35114 -5
      vertex 3.23607 -2.35114 -5
      vertex 3.56403 -1.81596 -5
    endloop
  endfacet
  facet normal 0 0 1
    outer loop
      vertex 2.82843 2.82843 -5
      vertex 3.23607 -2.35114 -5
      vertex 3.23607 2.35114 -5
    endloop
  endfacet
  facet normal 0 0 1
    outer loop
      vertex 2.82843 2.82843 -5
      vertex 2.82843 -2.82843 -5
      vertex 3.23607 -2.35114 -5
    endloop
  endfacet
  facet normal 0 0 1
    outer loop
      vertex 2.35114 3.23607 -5
      vertex 2.82843 -2.82843 -5
      vertex 2.82843 2.82843 -5
    endloop
  endfacet
  facet normal 0 0 1
    outer loop
      vertex 2.35114 3.23607 -5
      vertex 2.35114 -3.23607 -5
      vertex 2.82843 -2.82843 -5
    endloop
  endfacet
  facet normal 0 0 1
    outer loop
      vertex 1.81596 3.56403 -5
      vertex 2.35114 -3.23607 -5
      vertex 2.35114 3.23607 -5
    endloop
  endfacet
  facet normal 0 0 1
    outer loop
      vertex 1.81596 3.56403 -5
      vertex 1.81596 -3.56403 -5
      vertex 2.35114 -3.23607 -5
    endloop
  endfacet
  facet normal 0 0 1
    outer loop
      vertex 1.23607 3.80423 -5
      vertex 1.81596 -3.56403 -5
      vertex 1.81596 3.56403 -5
    endloop
  endfacet
  facet normal 0 0 1
    outer loop
      vertex 1.23607 3.80423 -5
      vertex 1.23607 -3.80423 -5
      vertex 1.81596 -3.56403 -5
    endloop
  endfacet
  facet normal 0 0 1
    outer loop
      vertex 0.625737 3.95075 -5
      vertex 1.23607 -3.80423 -5
      vertex 1.23607 3.80423 -5
    endloop
  endfacet
  facet normal 0 0 1
    outer loop
      vertex 0.625737 3.95075 -5
      vertex 0.625737 -3.95075 -5
      vertex 1.23607 -3.80423 -5
    endloop
  endfacet
  facet normal 0 0 1
    outer loop
      vertex 0 4 -5
      vertex 0.625737 -3.95075 -5
      vertex 0.625737 3.95075 -5
    endloop
  endfacet
  facet normal 0 0 1
    outer loop
      vertex 0 4 -5
      vertex 0 -4 -5
      vertex 0.625737 -3.95075 -5
    endloop
  endfacet
  facet normal -0 0 1
    outer loop
      vertex -0.625737 3.95075 -5
      vertex 0 -4 -5
      vertex 0 4 -5
    endloop
  endfacet
  facet normal 0 0 1
    outer loop
      vertex -0.625737 3.95075 -5
      vertex -0.625737 -3.95075 -5
      vertex 0 -4 -5
    endloop
  endfacet
  facet normal -0 0 1
    outer loop
      vertex -1.23607 3.80423 -5
      vertex -0.625737 -3.95075 -5
      vertex -0.625737 3.95075 -5
    endloop
  endfacet
  facet normal 0 0 1
    outer loop
      vertex -1.23607 3.80423 -5
      vertex -1.23607 -3.80423 -5
      vertex -0.625737 -3.95075 -5
    endloop
  endfacet
  facet normal -0 0 1
    outer loop
      vertex -1.81596 3.56403 -5
      vertex -1.23607 -3.80423 -5
      vertex -1.23607 3.80423 -5
    endloop
  endfacet
  facet normal 0 0 1
    outer loop
      vertex -1.81596 3.56403 -5
      vertex -1.81596 -3.56403 -5
      vertex -1.23607 -3.80423 -5
    endloop
  endfacet
  facet normal -0 0 1
    outer loop
      vertex -2.35114 3.23607 -5
      vertex -1.81596 -3.56403 -5
      vertex -1.81596 3.56403 -5
    endloop
  endfacet
  facet normal 0 0 1
    outer loop
      vertex -2.35114 3.23607 -5
      vertex -2.35114 -3.23607 -5
      vertex -1.81596 -3.56403 -5
    endloop
  endfacet
  facet normal -0 0 1
    outer loop
      vertex -2.82843 2.82843 -5
      vertex -2.35114 -3.23607 -5
      vertex -2.35114 3.23607 -5
    endloop
  endfacet
  facet normal 0 0 1
    outer loop
      vertex -2.82843 2.82843 -5
      vertex -2.82843 -2.82843 -5
      vertex -2.35114 -3.23607 -5
    endloop
  endfacet
  facet normal -0 0 1
    outer loop
      vertex -3.23607 2.35114 -5
      vertex -2.82843 -2.82843 -5
      vertex -2.82843 2.82843 -5
    endloop
  endfacet
  facet normal 0 0 1
    outer loop
      vertex -3.23607 2.35114 -5
      vertex -3.23607 -2.35114 -5
      vertex -2.82843 -2.82843 -5
    endloop
  endfacet
  facet normal -0 0 1
    outer loop
      vertex -3.56403 1.81596 -5
      vertex -3.23607 -2.35114 -5
      vertex -3.23607 2.35114 -5
    endloop
  endfacet
  facet normal 0 0 1
    outer loop
      vertex -3.56403 1.81596 -5
      vertex -3.56403 -1.81596 -5
      vertex -3.23607 -2.35114 -5
    endloop
  endfacet
  facet normal -0 0 1
    outer loop
      vertex -3.80423 1.23607 -5
      vertex -3.56403 -1.81596 -5
      vertex -3.56403 1.81596 -5
    endloop
  endfacet
  facet normal 0 0 1
    outer loop
      vertex -3.80423 1.23607 -5
      vertex -3.80423 -1.23607 -5
      vertex -3.56403 -1.81596 -5
    endloop
  endfacet
  facet normal -0 0 1
    outer loop
      vertex -3.95075 0.625737 -5
      vertex -3.80423 -1.23607 -5
      vertex -3.80423 1.23607 -5
    endloop
  endfacet
  facet normal 0 0 1
    outer loop
      vertex -3.95075 0.625737 -5
      vertex -3.95075 -0.625737 -5
      vertex -3.80423 -1.23607 -5
    endloop
  endfacet
  facet normal 0 -0 1
    outer loop
      vertex -3.95075 -0.625737 -5
      vertex -3.95075 0.625737 -5
      vertex -4 0 -5
    endloop
  endfacet
  facet normal -0.0784645 0.996917 0
    outer loop
      vertex 0 4 -12
      vertex -0.625737 3.95075 -5
      vertex 0 4 -5
    endloop
  endfacet
  facet normal -0.0784645 0.996917 0
    outer loop
      vertex -0.625737 3.95075 -5
      vertex 0 4 -12
      vertex -0.625737 3.95075 -12
    endloop
  endfacet
  facet normal 0.0784645 -0.996917 0
    outer loop
      vertex 0 -4 -12
      vertex 0.625737 -3.95075 -5
      vertex 0 -4 -5
    endloop
  endfacet
  facet normal 0.0784645 -0.996917 0
    outer loop
      vertex 0.625737 -3.95075 -5
      vertex 0 -4 -12
      vertex 0.625737 -3.95075 -12
    endloop
  endfacet
  facet normal 0.382686 -0.923879 0
    outer loop
      vertex 1.23607 -3.80423 -12
      vertex 1.81596 -3.56403 -5
      vertex 1.23607 -3.80423 -5
    endloop
  endfacet
  facet normal 0.382686 -0.923879 0
    outer loop
      vertex 1.81596 -3.56403 -5
      vertex 1.23607 -3.80423 -12
      vertex 1.81596 -3.56403 -12
    endloop
  endfacet
  facet normal 0.649444 -0.760409 0
    outer loop
      vertex 2.35114 -3.23607 -12
      vertex 2.82843 -2.82843 -5
      vertex 2.35114 -3.23607 -5
    endloop
  endfacet
  facet normal 0.649444 -0.760409 0
    outer loop
      vertex 2.82843 -2.82843 -5
      vertex 2.35114 -3.23607 -12
      vertex 2.82843 -2.82843 -12
    endloop
  endfacet
  facet normal 0.923879 -0.382686 0
    outer loop
      vertex 3.56403 -1.81596 -5
      vertex 3.80423 -1.23607 -12
      vertex 3.80423 -1.23607 -5
    endloop
  endfacet
  facet normal 0.923879 -0.382686 0
    outer loop
      vertex 3.80423 -1.23607 -12
      vertex 3.56403 -1.81596 -5
      vertex 3.56403 -1.81596 -12
    endloop
  endfacet
  facet normal 0.852639 -0.5225 0
    outer loop
      vertex 3.23607 -2.35114 -5
      vertex 3.56403 -1.81596 -12
      vertex 3.56403 -1.81596 -5
    endloop
  endfacet
  facet normal 0.852639 -0.5225 0
    outer loop
      vertex 3.56403 -1.81596 -12
      vertex 3.23607 -2.35114 -5
      vertex 3.23607 -2.35114 -12
    endloop
  endfacet
  facet normal 0.972373 -0.233433 0
    outer loop
      vertex 3.80423 -1.23607 -5
      vertex 3.95075 -0.625737 -12
      vertex 3.95075 -0.625737 -5
    endloop
  endfacet
  facet normal 0.972373 -0.233433 0
    outer loop
      vertex 3.95075 -0.625737 -12
      vertex 3.80423 -1.23607 -5
      vertex 3.80423 -1.23607 -12
    endloop
  endfacet
  facet normal -0.5225 -0.852639 0
    outer loop
      vertex -2.35114 -3.23607 -12
      vertex -1.81596 -3.56403 -5
      vertex -2.35114 -3.23607 -5
    endloop
  endfacet
  facet normal -0.5225 -0.852639 -0
    outer loop
      vertex -1.81596 -3.56403 -5
      vertex -2.35114 -3.23607 -12
      vertex -1.81596 -3.56403 -12
    endloop
  endfacet
  facet normal -0.233433 -0.972373 0
    outer loop
      vertex -1.23607 -3.80423 -12
      vertex -0.625737 -3.95075 -5
      vertex -1.23607 -3.80423 -5
    endloop
  endfacet
  facet normal -0.233433 -0.972373 -0
    outer loop
      vertex -0.625737 -3.95075 -5
      vertex -1.23607 -3.80423 -12
      vertex -0.625737 -3.95075 -12
    endloop
  endfacet
  facet normal -0.923879 -0.382686 0
    outer loop
      vertex -3.56403 -1.81596 -12
      vertex -3.80423 -1.23607 -5
      vertex -3.80423 -1.23607 -12
    endloop
  endfacet
  facet normal -0.923879 -0.382686 0
    outer loop
      vertex -3.80423 -1.23607 -5
      vertex -3.56403 -1.81596 -12
      vertex -3.56403 -1.81596 -5
    endloop
  endfacet
  facet normal -0.996917 -0.0784645 0
    outer loop
      vertex -3.95075 -0.625737 -12
      vertex -4 0 -5
      vertex -4 0 -12
    endloop
  endfacet
  facet normal -0.996917 -0.0784645 0
    outer loop
      vertex -4 0 -5
      vertex -3.95075 -0.625737 -12
      vertex -3.95075 -0.625737 -5
    endloop
  endfacet
  facet normal 0.233433 -0.972373 0
    outer loop
      vertex 0.625737 -3.95075 -12
      vertex 1.23607 -3.80423 -5
      vertex 0.625737 -3.95075 -5
    endloop
  endfacet
  facet normal 0.233433 -0.972373 0
    outer loop
      vertex 1.23607 -3.80423 -5
      vertex 0.625737 -3.95075 -12
      vertex 1.23607 -3.80423 -12
    endloop
  endfacet
  facet normal 0.996917 -0.0784645 0
    outer loop
      vertex 3.95075 -0.625737 -5
      vertex 4 0 -12
      vertex 4 0 -5
    endloop
  endfacet
  facet normal 0.996917 -0.0784645 0
    outer loop
      vertex 4 0 -12
      vertex 3.95075 -0.625737 -5
      vertex 3.95075 -0.625737 -12
    endloop
  endfacet
  facet normal -0.972373 -0.233433 0
    outer loop
      vertex -3.80423 -1.23607 -12
      vertex -3.95075 -0.625737 -5
      vertex -3.95075 -0.625737 -12
    endloop
  endfacet
  facet normal -0.972373 -0.233433 0
    outer loop
      vertex -3.95075 -0.625737 -5
      vertex -3.80423 -1.23607 -12
      vertex -3.80423 -1.23607 -5
    endloop
  endfacet
endsolid OpenSCAD_Model
